<svg xmlns="http://www.w3.org/2000/svg" xml:space="preserve" width="1920" height="1080" viewBox="0 0 508 285.75"><defs><clipPath id="a"><path d="M168 33h10.398v13H168Zm0 0"/></clipPath><clipPath id="b"><path d="M93 .8h14V14H93Zm0 0"/></clipPath><clipPath id="c"><path d="M105 .8h12V15h-12zm0 0"/></clipPath></defs><g fill="#fff"><path d="M303.211 21.693h3.71l-.349 1.428h-1.778l-.176.751h1.855l-.323 1.324h-1.83l-.44 1.88h-1.918zm4.215 0h1.917l-1.249 5.384h-1.916zm2.418.032.124-.016c.615-.073 1.38-.122 1.802-.122.703 0 1.249.081 1.662.25.528.219.844.695.844 1.268a2 2 0 0 1-.484 1.324c-.272.315-.518.468-1.028.622l-.124.04c.053.04.07.057.098.08.149.17.597 1.042.975 1.906h-2.11a29 29 0 0 0-.712-1.84l-.422 1.84h-1.864zm1.416 2.535c.616 0 1.046-.364 1.046-.88q-.002-.412-.598-.412a1.3 1.3 0 0 0-.298.032l-.29 1.243c.06.008.07.017.14.017m7.567-2.567h4.65l-.325 1.558h-1.38l-.914 3.826h-1.917l.914-3.826h-1.496zm2.928 4.422a.467.467 0 0 1 .468.466.466.466 0 0 1-.468.468.46.46 0 0 1-.467-.468c0-.26.207-.466.467-.466m0 .876a.41.41 0 0 0 .41-.408.41.41 0 0 0-.41-.41.41.41 0 0 0-.409.408c0 .23.181.41.409.41m-.181-.648c.024-.002.027-.004.074-.008.047-.003.067-.005.087-.005q.23.002.23.173c0 .069-.03.11-.091.134l-.007.002.009.009c.016.014.07.096.116.17h-.176a3 3 0 0 0-.092-.161v.161h-.15zm.168.224q.064 0 .065-.058 0-.055-.063-.056l-.02.002v.11q.009.003.018.002"/><path d="M313.902 26.94c.539.16 1.128.25 1.679.25.747 0 1.319-.17 1.81-.525.546-.388.898-.985.898-1.525 0-.364-.158-.695-.44-.929-.22-.177-.448-.315-.914-.533l-.378-.177q-.185-.096-.185-.202c0-.194.246-.339.58-.339.25 0 .548.072 1.118.259l.393-1.458a4.8 4.8 0 0 0-1.255-.174c-1.566 0-2.77.856-2.77 1.962 0 .581.387.993 1.354 1.445.457.21.536.266.536.412 0 .218-.237.355-.624.355-.343 0-.783-.105-1.38-.323h-.001zm-11.465 25h-.116v.176h.116c.057 0 .093-.035.093-.087s-.036-.088-.093-.088m.006.287h-.122v.24h-.125v-.638h.247c.132 0 .211.09.211.199 0 .108-.079.199-.21.199m.603-.287h-.118v.169h.118c.055 0 .09-.036.09-.085s-.035-.084-.09-.084m.097.527-.125-.255h-.09v.255h-.124v-.638h.25c.13 0 .207.088.207.195 0 .09-.054.145-.116.168l.142.275zm.293 0v-.638h.42v.11h-.296v.15h.253v.112h-.253v.155h.297v.111zm.763.006c-.096 0-.17-.02-.233-.085l.081-.08c.04.04.095.053.154.053q.112 0 .113-.079 0-.034-.02-.053c-.012-.012-.026-.018-.056-.023l-.077-.01a.2.2 0 0 1-.124-.053.17.17 0 0 1-.045-.126c0-.114.084-.194.222-.194.088 0 .152.022.207.074l-.08.079c-.04-.04-.088-.044-.13-.044-.067 0-.1.036-.1.08q0 .026.02.046a.1.1 0 0 0 .059.025l.075.011a.2.2 0 0 1 .122.05q.05.049.05.135c0 .124-.104.194-.237.194m.4-.006v-.638h.42v.11h-.296v.15h.252v.112h-.252v.155h.296v.111zm.965 0-.253-.392v.392h-.125v-.638h.112l.253.39v-.39h.125v.638zm.55-.527v.527h-.125v-.527h-.167v-.111h.459v.11zm.313.527v-.638h.421v.11h-.296v.15h.252v.112h-.252v.155h.296v.111zm.9-.488q-.03-.04-.092-.04h-.095v.417h.095q.062 0 .093-.04c.023-.028.027-.074.027-.17 0-.098-.004-.138-.027-.167m.087.427a.23.23 0 0 1-.169.061h-.23v-.638h.23c.066 0 .126.018.169.06.072.072.064.16.064.256s.008.19-.064.261m.745-.207h-.13v.157h.13c.057 0 .084-.036.084-.08 0-.042-.027-.077-.084-.077m-.008-.26h-.122v.148h.122c.053 0 .083-.03.083-.074s-.03-.073-.083-.073m.02.527h-.267v-.638h.257c.125 0 .197.07.197.179a.15.15 0 0 1-.079.132.15.15 0 0 1 .088.143c0 .12-.081.184-.195.184m.612-.262v.262h-.124v-.262l-.192-.377h.136l.12.258.117-.257h.135zm7.553-1.155c.035 0 .06.03.06.062v1.783c0 .033-.025.063-.06.063h-.16a.065.065 0 0 1-.061-.063v-1.783a.065.065 0 0 1 .062-.062zm2.088 1.681c-.232 0-.396-.186-.396-.42 0-.237.164-.42.396-.42s.396.183.396.42c0 .234-.164.42-.396.42m0-1.102a.673.673 0 0 0-.679.682c0 .388.302.681.68.681a.67.67 0 0 0 .678-.681.673.673 0 0 0-.679-.682m-.75 1.145c.036.043.006.076-.013.09a.7.7 0 0 1-.414.128c-.402 0-.669-.293-.669-.681s.267-.684.669-.684c.159 0 .304.045.414.129.02.013.046.043.014.089l-.075.105c-.03.04-.065.03-.095.01a.47.47 0 0 0-.25-.077c-.235 0-.391.188-.391.428s.156.426.39.426a.5.5 0 0 0 .246-.079c.03-.016.062-.03.094.014zm-2.51-.04c-.232 0-.396-.189-.396-.423 0-.237.164-.42.396-.42.229 0 .396.183.396.42 0 .234-.167.423-.396.423m.614-1.07h-.159a.063.063 0 0 0-.062.062v.108a.5.5 0 0 0-.423-.207c-.35 0-.652.277-.652.681 0 .41.302.684.65.684a.51.51 0 0 0 .425-.207v.113c0 .033.03.06.062.06h.16a.06.06 0 0 0 .059-.06v-1.172a.06.06 0 0 0-.06-.062m7.458 1.229c.013.032-.003.065-.044.065h-.177c-.033 0-.06-.016-.07-.049l-.33-.884-.333.884q-.022.05-.07.049h-.16q-.048.002-.07-.049l-.336-.889-.332.889q-.02.05-.07.049h-.167q-.048 0-.07-.049l-.328-.889-.34.889a.07.07 0 0 1-.07.049h-.16q-.047.002-.069-.049l-.331-.889-.332.889c-.01.033-.038.049-.07.049h-.172c-.04 0-.057-.033-.043-.065l.45-1.178q.02-.051.07-.05h.194q.048-.001.07.05l.318.86.32-.86q.022-.051.07-.05h.192q.048-.001.07.05l.318.86.318-.86q.02-.051.07-.05h.191q.048-.001.07.05l.323.86.315-.86q.022-.051.07-.05h.194q.05-.001.07.05zm-10.915-.316-.123-.323c-.011-.026-.033-.051-.081-.051h-.162c-.04 0-.072.027-.054.078l.164.424a.7.7 0 0 1-.172.02c-.398 0-.681-.312-.681-.721 0-.41.283-.722.681-.722s.682.312.682.722a.73.73 0 0 1-.254.573m-.428-1.562a.973.973 0 0 0-.983.989c0 .565.439.988.983.988a1 1 0 0 0 .269-.035l.106.275q.013.047.073.049h.17c.04 0 .07-.027.05-.078l-.138-.361a.98.98 0 0 0 .454-.838.973.973 0 0 0-.984-.99m2.344.65a.063.063 0 0 1 .062.062v1.172c0 .033-.03.06-.062.06h-.159c-.03 0-.059-.025-.059-.057v-.108c-.08.118-.218.2-.42.2-.337 0-.544-.224-.544-.555v-.714c0-.033.03-.06.061-.06h.16a.06.06 0 0 1 .059.06v.668c0 .215.113.358.336.358.219 0 .348-.148.348-.356v-.67c0-.033.03-.06.06-.06zm9.867-12.671q0-.485-.046-.958h-8.764l-1.486 3.085h6.511c0 .513-1.968 3.769-5.076 3.641-3.743-.154-5.589-3.384-5.589-5.743 0-2.358 1.898-5.742 5.282-5.742s4.46 1.743 5.075 2.769l3.18-1.505c-1.418-3.23-4.724-4.917-8.224-4.917-5.047 0-9.139 4.195-9.139 9.37a9.6 9.6 0 0 0 .42 2.814l1.194-.519.03.098a8.1 8.1 0 0 0 2.8 4.057 7.66 7.66 0 0 0 4.695 1.599c.743 0 1.458-.076 2.123-.224l.076-.017.493 1.245c4.021-1 6.445-4.316 6.445-9.053"/><path d="M317.059 47.012a10 10 0 0 1-2.088.212 7.84 7.84 0 0 1-4.806-1.635 8.3 8.3 0 0 1-2.833-4.052l-1.022.444.03.094.061.178a9 9 0 0 0 .138.357q.035.085.072.168.044.105.092.21l.085.178.097.192.091.175.11.196q.044.08.092.159a10 10 0 0 0 .2.32q.046.07.094.139.067.1.137.197l.111.15a9 9 0 0 0 .251.322l.152.18.11.127a9 9 0 0 0 .261.28l.098.097.192.188q.061.058.124.114l.18.16a8 8 0 0 0 .327.269l.119.094a9 9 0 0 0 .316.23l.084.056q.126.086.255.168l.13.08q.11.066.223.13.068.04.138.078.118.065.24.126l.122.062a9 9 0 0 0 .364.169l.06.024q.159.068.32.13.066.025.133.048.129.048.26.09.071.024.143.046.135.043.274.08l.127.035a9 9 0 0 0 .402.095l.03.006q.19.04.383.07l.134.02a8 8 0 0 0 .438.053q.147.014.295.023l.135.009q.213.01.429.01h.003a13 13 0 0 0 .577-.014q.218-.009.432-.027l.055-.005a12 12 0 0 0 .885-.113l.136-.025a10 10 0 0 0 .428-.089zm10.502-14.88-1.13-1.205v15.78l1.13-1.148zm6.789 6.601a1.193 1.193 0 1 1-2.386 0 1.193 1.193 0 0 1 2.386 0"/><path d="M336.513 47.502h-.149v-.289l-.113.286h-.101l-.113-.287v.29h-.149v-.585h.173l.14.345.14-.345h.172zm-.754-.452h-.166v.452h-.15v-.452h-.167v-.133h.483zm-5.63-2.747.05-10.821h6.61v-3.538h-11.024l.504.545 1.472 1.57v13.574l-.079.08v.001l-1.23 1.252v.003l-.803.818h2.033l9.131-.004.042-3.478zm-32.526-4.377a1.193 1.193 0 1 1 0-2.386 1.193 1.193 0 0 1 0 2.386m8.85 8.118-7.239-18.049h-5.124l1.059 2.051.613 1.181-.003.007.055.106-.016.038-5.888 14.666h2.536l2.205-5.73 5.512.076 1.691 4.359-.765 1.295z"/><path d="m295.616 33.35-.56-1.078-6.451 15.772h1.111z"/></g><path fill="#fff" d="M218 35.84h-1.975v5.135H214.3v-5.134h-1.973v-1.483H218zm.203-1.483h5.275v1.38h-3.55v1.159h3.245v1.337h-3.244v1.26h3.643v1.482h-5.37zm10.186 2.365c-.09-.668-.61-1.02-1.334-1.02-1.11 0-1.539.983-1.539 1.963 0 .985.429 1.968 1.54 1.968.806 0 1.27-.464 1.334-1.225h1.725c-.093 1.705-1.345 2.707-3.022 2.707-2.003 0-3.3-1.53-3.3-3.45 0-1.917 1.297-3.446 3.3-3.446 1.427 0 2.975.908 3.022 2.503zm2.067-2.365h1.726v2.41h2.27v-2.41h1.725v6.618h-1.726v-2.724h-2.27v2.724h-1.725zm-13.532 10.64c-.092-.666-.612-1.02-1.334-1.02-1.113 0-1.539.983-1.539 1.966s.426 1.965 1.54 1.965c.806 0 1.27-.463 1.334-1.224h1.723c-.092 1.706-1.343 2.707-3.02 2.707-2.003 0-3.3-1.529-3.3-3.448s1.297-3.449 3.3-3.449c1.426 0 2.974.91 3.02 2.503zm2.067-2.364h1.724v2.412h2.271v-2.412h1.725v6.618h-1.725v-2.723h-2.272v2.723h-1.723z"/><path fill="#fff" d="M227.231 46.787h1.502L228 44.47h-.018zm-.11-4.154h1.75l2.477 6.618h-1.8l-.408-1.186h-2.306l-.418 1.186h-1.771z"/><path fill="#fff" d="M231.292 42.633h1.723v5.137h3.087v1.48h-4.81zm5.106 0h1.725v5.137h3.087v1.48h-4.812zm5.108 0h5.273v1.382h-3.55v1.158h3.244v1.335h-3.244v1.262h3.644v1.48h-5.367zm5.774 0h1.771l2.298 4.08h.019v-4.08h1.622v6.618h-1.771l-2.299-4.123h-.018v4.123h-1.622zm12.44 6.618h-1.114l-.1-.722c-.454.639-1.234.862-1.846.862-2.001 0-3.3-1.529-3.3-3.448s1.299-3.449 3.3-3.449c1.373 0 2.836.732 2.995 2.391h-1.725c-.056-.564-.61-.908-1.306-.908-1.112 0-1.539.983-1.539 1.966s.427 1.965 1.54 1.965c.852 0 1.427-.397 1.518-1.001h-1.204v-1.278h2.78z"/><g clip-path="url(#a)" transform="translate(171.165 25.03)scale(.52961)"><path fill="#fff" d="M168.238 33.238h9.961v2.61h-6.707v2.187h6.13v2.52h-6.13v2.383h6.88v2.796h-10.134z"/></g><path fill="#fff" d="M213.767 25.61h4.688l-.442 1.805h-2.245l-.223.947h2.344l-.408 1.672h-2.313l-.556 2.375h-2.421zm5.323 0h2.423l-1.576 6.799h-2.423z"/><g clip-path="url(#b)" transform="translate(171.165 25.03)scale(.52961)"><path fill="#fff" d="M99.637 7.219c1.468 0 2.496-.867 2.496-2.098 0-.656-.485-.984-1.426-.984-.273 0-.422.02-.715.078l-.691 2.965c.148.02.168.039.336.039m-3.375-6.047.293-.035c1.468-.176 3.293-.29 4.297-.29 1.68 0 2.976.192 3.964.594 1.258.52 2.012 1.657 2.012 3.024 0 1.176-.398 2.289-1.152 3.156-.653.75-1.239 1.117-2.453 1.484l-.293.094c.125.098.168.137.23.196.356.402 1.426 2.48 2.328 4.539h-5.035c-.648-1.829-.836-2.309-1.695-4.387l-1.008 4.387h-4.445z"/></g><path fill="#fff" d="M233.49 25.61h5.873l-.41 1.968h-1.744l-1.155 4.83h-2.42l1.155-4.83h-1.89zm3.682 6.155q.078 0 .08-.072 0-.07-.078-.07c-.013 0-.015 0-.025.002v.138zm-.214-.283.094-.008c.06-.005.084-.007.11-.007q.29.001.289.22c0 .084-.035.138-.114.167l-.008.003a1.6 1.6 0 0 1 .157.227h-.221a6 6 0 0 0-.117-.205v.205h-.19zm.228.819a.516.516 0 1 0 0-1.032.515.515 0 0 0-.515.515c0 .29.228.517.515.517m0-1.107a.59.59 0 1 1 0 1.182.58.58 0 0 1-.588-.592c0-.329.261-.59.588-.59"/><g clip-path="url(#c)" transform="translate(171.165 25.03)scale(.52961)"><path fill="#fff" d="M105.938 13.61c1.285.382 2.69.597 4.003.597 1.782 0 3.145-.406 4.317-1.254 1.3-.922 2.14-2.348 2.14-3.637 0-.867-.378-1.656-1.046-2.214-.528-.422-1.07-.75-2.184-1.27l-.902-.426c-.293-.152-.438-.304-.438-.48 0-.461.586-.809 1.383-.809.598 0 1.305.176 2.664.617l.938-3.472a11.3 11.3 0 0 0-2.993-.414c-3.734 0-6.605 2.039-6.605 4.675 0 1.387.922 2.368 3.226 3.446 1.09.5 1.282.636 1.282.984 0 .516-.567.844-1.489.844-.82 0-1.867-.25-3.293-.77z"/></g><path fill="#fff" d="m177.152 41.63-.275 1.439 2.745-1.177a6.4 6.4 0 0 1-.418-1.144z"/><path fill="#fff" d="m199.74 47.393-2.256-2.166c.885-.608 1.636-1.32 2.216-2.113q.011-.015.022-.034l5.487-5.698.165-.176.716-.745-6.702-6.435-1.507 1.567-1.66 1.732-1.134 1.18-2.133 2.223h.002l-.186.193.622.595 2.888 2.816c-.632.598-1.435 1.111-2.341 1.49h-.003l-1.905-1.831-1.872-1.798-1.272-1.206 3.024-3.151 1.52-1.582 1.651-1.72 4.128-4.299 10.863 10.398zm1.4-9.134q.075-.486.076-.945c0-1.802-.815-3.7-2.187-5.116l.358-.373 5.553 5.331-4.597 4.786c.488-1.134.802-2.535.802-3.538q0-.066-.005-.145m-4.615 1.83-2.622-2.553 2.22-2.312c.79.658 1.374 1.445 1.682 2.31a4 4 0 0 1-.077.425c-.188.766-.593 1.482-1.203 2.13m-.437 3.816c-.403.207-.834.393-1.276.555-1.521.562-3.162.845-4.873.845-2.428 0-4.727-.575-6.646-1.669-1.062-.604-1.956-1.337-2.65-2.177a7.4 7.4 0 0 1-.702-.996 6.4 6.4 0 0 1-.802-2.185 6 6 0 0 1-.082-.964c0-1.163.334-2.282.994-3.331l1.764 1.787a4.3 4.3 0 0 0-.052 2.285 4.9 4.9 0 0 0 .613 1.425c.228.362.507.705.826 1.024.875.875 2.064 1.564 3.438 1.992a11 11 0 0 0 3.3.49c.924 0 1.839-.11 2.718-.328a10 10 0 0 0 1.434-.47c1.038-.433 1.953-1.037 2.646-1.744.7-.722 1.165-1.527 1.378-2.392.082-.35.128-.699.128-1.042 0-.983-.373-2.096-.977-2.948l1.504-1.564c1.285 1.34 2.048 3.126 2.048 4.816 0 .31-.026.635-.08.964-.234 1.417-.987 2.766-2.177 3.904a10.3 10.3 0 0 1-2.474 1.723m-17.341-5.563.008.037c-.004.05-.008.098-.008.135 0 .531.325 1.791.457 2.294v.002l-1.725.738 1.647-8.577.674.669c-.755 1.15-1.14 2.385-1.14 3.674 0 .335.029.672.087 1.028m4.028 1.012c-.019-.03-.044-.056-.062-.085a4.5 4.5 0 0 1-.565-1.31l-.027-.143a4.8 4.8 0 0 1 .598-1.288l2.097 2.075zm7.96 1.193 1.802 1.732a11 11 0 0 1-2.598.31c-1.107 0-2.177-.16-3.182-.472-.132-.041-.263-.089-.395-.134l3.997-1.798zm-17.613 7.144 3.873-21.575 5.53 5.237 1.731 1.643 1.324 1.254 3.142 2.995v1.368l1.335 1.285-4.173 1.897c-.94-.398-1.762-.933-2.404-1.572q-.019-.024-.041-.046l3.203-1.496-7.529-7.01-.149-.15-.18.971-1.78 9.27-.275 1.438.472-.201.002-.012 2.42-1.037c.378.799.92 1.54 1.594 2.201zm18.772-14.314-3.231 3.366-2.84-2.692c1.22-.527 2.652-.835 4.185-.835.649 0 1.28.058 1.886.161m-2.33-4.384c1.755 0 4.099.451 5.584.993l-.066.069-1.65 1.721-.007.006a10.8 10.8 0 0 0-3.418-.544c-2.133 0-4.069.593-5.509 1.558l-.023-.021-1.731-1.64-.153-.148c1.892-1.144 4.348-1.994 6.973-1.994m20.755 7.386v-.004l-.002.002-11.108-10.62-3.736 3.892c-1.546-.596-3.972-1.076-5.817-1.076-2.686 0-5.452.916-7.386 2.113l-5.21-4.94v-.005l-.005.002-.003-.004-.002.004-1.864.195-4.021 22.026 1.872.194.002-.004 8.488-3.715q.019.02.04.037c2.019 1.781 5.05 2.917 8.44 2.917 2.354 0 4.531-.546 6.32-1.477l3.414 3.277 10.578-11.019v-1.793l.002-.002z"/><path d="M-61.107-97.455h-4.125v-155.37h4.125z" style="fill:#fff;fill-opacity:1;fill-rule:nonzero;stroke:none;stroke-width:1.33323" transform="translate(292.422 78.797)scale(.23617)"/><path d="m167.056 326.958 5.843-8.765-5.446-8.057h5.245l2.964 5.18 2.95-5.18h5.087l-5.512 8.255 5.822 8.568h-5.267l-3.389-5.711-3.21 5.711zm-9.738 0v-13.215h-5.159v-3.607h14.805v3.607h-5.159v13.215zm-18.286-16.823v16.822h4.248v-5.401h2.26l2.942 5.401h4.896l-4.119-6.571a6.1 6.1 0 0 0 1.78-1.915 4.94 4.94 0 0 0 .702-2.602q0-2.702-1.74-4.222-1.74-1.509-4.838-1.512zm5.533 3.255q2.856 0 2.856 2.432 0 2.482-2.9 2.482h-1.241v-4.913h1.285zm-32.731-10.908c.359-.077.718-.135 1.083-.191l1.697 9.695a6.4 6.4 0 0 0-1.082.19zm-.434 10.696q.538-.384 1.141-.653l-4.886-8.52q-.58.307-1.13.663zm-2.77 5.369q0-.547.087-1.072h-9.722q-.036.51-.039 1.024a14 14 0 0 0 .033.964h9.705a7 7 0 0 1-.064-.916m13.182 0a6.59 6.59 0 0 1-6.594 6.588 6.59 6.59 0 0 1-6.49-5.472l-9.14 3.351q.304 1.068.746 2.08l9.08-3.33-7.41 6.267a16 16 0 0 0 1.539 1.86l6.931-5.853-4.52 7.915a15.6 15.6 0 0 0 2.274 1.333l4.248-7.442-1.48 8.471a16 16 0 0 0 2.807.495l1.383-7.916 1.387 7.921q1.519-.13 2.94-.522l-1.292-7.344 3.71 6.462a16 16 0 0 0 2.863-1.68l-3.4-5.926 5.2 4.392a16.3 16.3 0 0 0 2.215-2.705l-4.646-3.922 5.69 2.083a16.7 16.7 0 0 0 1.208-3.465l-4.994-1.829h5.31a16.4 16.4 0 0 0-.037-4.004h-9.903c.24.685.376 1.426.376 2.192m-13.014-1.486a6.6 6.6 0 0 1 .62-1.647l-9.15-3.357a16 16 0 0 0-.605 1.66zm18.677-9.317-7.454 6.288q.273.294.511.62l7.449-6.289q-.244-.317-.506-.62m-3.695-3.161q-.39-.244-.8-.474l-4.88 8.51q.42.205.807.463zm-13.035 9.124-7.47-6.316c-.348.38-.675.771-.984 1.185l7.453 6.301c.288-.43.626-.822 1.002-1.17m5.13-1.72c.337.039.657.093.98.174l1.697-9.69a21 21 0 0 0-.975-.174zm-38.861 9.358v2.933h-1.389v-2.933l-2.144-4.216h1.513l1.333 2.883 1.318-2.883h1.518zm-9.843-4.217v7.15h2.993c1.271 0 2.186-.725 2.186-2.058 0-.957-.55-1.41-.984-1.605.363-.174.886-.686.886-1.48 0-1.225-.817-2.007-2.21-2.007zm1.398 1.245h1.365c.588 0 .92.333.92.822 0 .495-.332.827-.92.827H68.57zm1.453 2.901c.636 0 .936.393.936.876 0 .485-.3.882-.936.882H68.57v-1.756h1.453zm-12.803-4.145v7.15h2.58c.746 0 1.415-.212 1.888-.686l-.001-.002c.806-.798.724-1.842.724-2.915 0-1.078.082-2.063-.724-2.862-.472-.474-1.142-.685-1.887-.685zm1.399 1.246h1.05c.485 0 .805.153 1.044.44.262.321.3.773.3 1.862 0 1.082-.038 1.595-.3 1.915-.24.287-.56.44-1.044.44h-1.05zm-7.975 5.903v-7.149h4.706v1.245h-3.308v1.676h2.818v1.246h-2.818v1.736h3.308v1.246zm-3.505-5.904v5.904h-1.398v-5.904h-1.866v-1.245h5.13v1.245zm-6.147 5.904-2.83-4.386v4.386h-1.398v-7.149h1.246l2.83 4.38v-4.38h1.398v7.15zm-10.806 0v-7.149h4.708v1.245h-3.31v1.676h2.82v1.246h-2.82v1.736h3.309v1.246zm-4.472.06c-1.082 0-1.904-.228-2.604-.941l.902-.904c.451.452 1.06.599 1.724.599.828 0 1.268-.31 1.268-.882 0-.25-.07-.462-.223-.603-.142-.13-.3-.202-.63-.25l-.866-.12c-.61-.092-1.061-.283-1.381-.594-.345-.342-.513-.8-.513-1.404 0-1.273.941-2.17 2.487-2.17.985 0 1.697.245 2.307.833l-.882.875c-.451-.43-.996-.489-1.462-.489-.747 0-1.106.408-1.106.903 0 .18.06.37.213.51a1.2 1.2 0 0 0 .657.28l.845.119c.651.092 1.065.272 1.364.554.382.36.556.882.556 1.518 0 1.382-1.159 2.166-2.656 2.166m-8.54-.06v-7.149h4.704v1.245h-3.312v1.676h2.824v1.246h-2.824v1.736h3.312v1.246zm-7.075-7.149v7.15h1.4v-2.852h1l1.399 2.852 1.615-.002-1.593-3.079c.691-.256 1.3-.876 1.3-1.877 0-1.197-.86-2.192-2.318-2.192zm1.4 1.246h1.316c.61 0 1.012.392 1.012.946 0 .55-.403.942-1.012.942H11.5zm-8.204-1.246v7.15h1.392v-2.689h1.376c1.475 0 2.361-1.018 2.361-2.231s-.886-2.23-2.36-2.23zm1.392 1.246h1.305c.631 0 1.034.402 1.034.984s-.403.975-1.034.975H4.688Zm153.027-96.03c-6.022.033-12.682 1.498-17.786 3.883-2.329-1.942-5.56-2.932-9.684-2.932-7.236 0-14.385 3.171-21.251 9.422-6.125 5.496-10.712 11.943-13.634 19.162a41 41 0 0 0-1.953 6.213l-10.12-2.53-.3.593a16.7 16.7 0 0 1-2.365 3.537 21.3 21.3 0 0 1-3.204 2.953c-2.574 1.911-5.19 2.88-7.781 2.88-1.457 0-3.129-.426-3.129-3.711 0-2.449.73-5.37 2.16-8.683 1.596-3.766 3.663-7.111 6.143-9.951 3.004-3.39 6.202-5.26 9.44-5.572h.788c2.612 0 4.282 1.045 5.11 3.19l.315.804 13.486-6.006-.08-.61c-.975-7.502-5.577-11.305-13.684-11.305-7.018 0-14.091 3.194-21.022 9.489-5.947 5.478-10.473 11.88-13.444 19.02-1.741 4.064-2.671 8.259-2.791 12.486l-20.048.968 3.4-8.847 10.435-.571 4.614-10.738-10.566.575 3.662-9.482 16.992-.181 6.964-11.81H31.625l-5.223 12.35 4.253-.088-18.073 42.954s10.158-.985 19.63-1.578c8.39-.528 20.206-.663 20.206-.663l1.806-5.3c1.79 3.59 5.43 5.31 11.114 5.31 4.783 0 10.512-.577 16.758-4.859a45 45 0 0 0 6.996-6.044 40.4 40.4 0 0 0 3.657-4.538 28 28 0 0 0-.136 2.683c0 4.097 1.006 7.388 3.009 9.782 2.12 2.438 5.309 3.672 9.476 3.672 6.66 0 13.471-2.878 20.246-8.558 6.153-5.245 10.635-11.235 13.323-17.8 1.475-3.652 2.226-6.802 2.226-9.374 0-1.295-.181-2.624-.517-3.951 2.92-1.18 7.535-2.73 11.43-2.666-.668 1.29-22.474 40.653-22.628 40.913l-.566.985 1.122.207c.212.038 4.395.8 11.322.8q2.194 0 4.744-.115c15.08-1.567 24.59-9.21 29.907-15.348 6.06-6.992 9.95-15.968 10.163-23.427.44-15.777-19.053-17.078-25.463-17.507l-.157-.011a35 35 0 0 0-2.535-.075m6.027 14.203c1.437.125 5.735.713 7.9 3.19.997 1.142 1.404 2.512 1.24 4.194-1.039 10.603-14.716 21.37-24.628 22.333 2.078-3.82 14.362-27.703 15.488-29.717m-39.96.794h.789c2.932 0 4.7.986 5.391 3.004l-4.455 2.971.266.625a8.4 8.4 0 0 1 .664 3.275c0 3.656-1.829 7.563-5.44 11.621-3.656 4.218-7.275 6.356-10.752 6.356-1.725 0-3.705-.517-3.705-4.555 0-4.487 1.817-9.384 5.408-14.564 3.77-5.483 7.774-8.426 11.834-8.733M-1.08 206.885c-6.756-.032-15.133 1.065-25.5 3.733v.002l-7.073 14.763 8.428-2.207c-2.894 5.5-27.414 58.905-29.503 64.28 9.074-.528 40.977-6.763 52.887-15.252 11.878-8.333 26.512-21.924 27.775-41.848.56-8.828-2.884-23.354-27.013-23.47m-1.515 16.845c3.904-.029 8.484.98 10.258 5.413 4.592 11.474-10.64 34.031-36.016 39.917 4.141-9.053 16.736-38.682 19.396-44.471 0 0 2.918-.833 6.362-.859" style="fill:#fff;fill-opacity:1;stroke-width:1.39278" transform="translate(218.875 105.18)scale(.37506)"/><path fill="#fff" d="m194.684 212.979-6.193 13.551 9.059-.07-23.138 53.117s13.09.386 25.494 1.404c10.49.854 20.614 2.361 20.614 2.361l5.185-13.628-29.569-2.226 5.641-13.385 15.56.844 5.66-13.078-16.79-.794 6.229-14.543h24.847l4.75-13.434zm32.599 66.772-3.329.081.016.713 1.24-.028.087 3.38.85-.022-.088-3.384 1.24-.028zm3.886-.097-1.045 2.774-.05.006-1.186-2.725-1.055.028.103 4.094.832-.02-.07-2.677h.032l1.121 2.628.566-.017.979-2.671h.038l.065 2.665.833-.02-.103-4.098z" style="stroke-width:1.39278" transform="translate(218.875 105.18)scale(.37506)"/><path fill="#100f0d" d="M247.865 2.227c-.408 1.002-1.198 1.567-2.345 1.681a2.2 2.2 0 0 1-.544-.037l-.185-.023c-.822-.174-1.41-.614-1.796-1.337-1.566-2.972-3.144-5.932-4.722-8.895l-2.774-5.235-.028-.043q.01-.015.028-.022l.13-.093c.244-.179.49-.348.734-.523.05-.032.098-.07.143-.097.037.033.075.077.108.109q.961 1.041 1.926 2.083l2.633 2.862q3.07 3.339 6.153 6.672c.8.869.98 1.822.54 2.898m-13.734-15.974-1.082-1.501c.208-.14.408-.288.61-.43l.25-.18.37.524.713.984q-.433.293-.86.603m-2.006-3.872a11.84 11.84 0 0 1-8.875 2.09 11.84 11.84 0 0 1-7.726-4.822 11.8 11.8 0 0 1-2.046-8.846 11.77 11.77 0 0 1 4.815-7.705 11.74 11.74 0 0 1 6.872-2.214c.659 0 1.327.055 1.992.164a11.78 11.78 0 0 1 7.72 4.841c1.81 2.574 2.546 5.794 2.007 8.836v.011a11.67 11.67 0 0 1-4.76 7.644m17.168 15.467L238.55-13.818c-.038-.044-.126-.136-.135-.158 0 0 .006-.028.037-.098a1.13 1.13 0 0 0-.12-1.181c-.271-.354-.718-.522-1.235-.43a1 1 0 0 1-.092-.119c-.25-.365-.511-.73-.766-1.088l-.376-.529q-.068-.086-.109-.152l.141-.157c1.775-2.057 2.889-4.418 3.32-7.024a14.2 14.2 0 0 0-4.249-12.818c-2.776-2.643-6.448-4.025-10.29-3.912-8.535.267-13.432 7.155-13.705 13.499-.178 4.162 1.198 7.774 4.087 10.738 2.618 2.683 5.913 4.126 9.792 4.277 1.975.083 3.94-.278 5.865-1.055q.078-.027.154-.06c.032.043.07.097.103.147l.397.56c.222.32.45.648.685.963.153.202.147.234.082.37a1.17 1.17 0 0 0 .103 1.219 1.05 1.05 0 0 0 1.013.425c.032-.006.065-.006.08-.006h.028c.028.021.081.131.147.255l7.345 13.864c.805 1.518 2.073 2.432 3.775 2.714q.427.071.844.07a5.18 5.18 0 0 0 4.532-2.702 5.15 5.15 0 0 0-.708-5.947" style="fill:#fff;fill-opacity:1;stroke-width:1.39278" transform="translate(388.968 41.859)scale(.37506)"/><path d="M219.667-35.59a4 4 0 0 0-.571.408c-1.992 1.616-3.232 3.7-3.695 6.191v.011c-.43 2.633.065 5.098 1.458 7.324.093.146.212.337.365.494a1.2 1.2 0 0 0 .854.354 1.145 1.145 0 0 0 1.022-1.659c-.049-.109-.118-.213-.184-.316l-.06-.086a7.897 7.897 0 0 1 1.816-10.572l.083-.06c.097-.076.202-.153.288-.24a1.2 1.2 0 0 0 .103-1.566 1.14 1.14 0 0 0-1.48-.283" style="fill:#fff;fill-opacity:1;stroke-width:1.39278" transform="translate(388.968 41.859)scale(.37506)"/><g style="fill:#fff;fill-opacity:1"><path d="M29.868-27.913c-5.265 0-9.624 3.934-10.315 9.009h-4.554a1.41 1.41 0 0 0 0 2.819h4.554c.69 5.075 5.049 9.008 10.315 9.008 5.268 0 9.62-3.933 10.31-9.008h4.701a1.41 1.41 0 0 0 0-2.819h-4.7c-.691-5.075-5.043-9.009-10.31-9.009m-.001 2.818za7.605 7.605 0 0 1 7.599 7.6 7.605 7.605 0 0 1-7.6 7.6 7.605 7.605 0 0 1-7.59-7.3c.023-.098.06-.195.06-.3s-.037-.202-.06-.299a7.605 7.605 0 0 1 7.59-7.3M23.599.046a1.407 1.407 0 0 0 1.41-1.41 1.407 1.407 0 0 0-1.41-1.409h-8.036v-8.231a1.407 1.407 0 1 0-2.812 0v9.64c0 .78.63 1.41 1.403 1.41zM45.72-12.315a1.41 1.41 0 0 0-1.409 1.408v8.037H36.08a1.41 1.41 0 0 0 0 2.817h9.64c.78 0 1.41-.63 1.41-1.408v-9.446c0-.777-.63-1.408-1.41-1.408m0-22.72h-9.444a1.41 1.41 0 0 0 0 2.819h8.036v8.231a1.41 1.41 0 0 0 2.818 0v-9.64c0-.78-.63-1.41-1.41-1.41M14.154-22.674a1.407 1.407 0 0 0 1.41-1.409v-8.036h8.237a1.409 1.409 0 0 0 0-2.818h-9.647a1.407 1.407 0 0 0-1.403 1.409v9.445a1.407 1.407 0 0 0 1.403 1.409" style="fill:#fff;fill-opacity:1;stroke-width:1.39278" transform="translate(21.515 39.438)scale(.37506)"/></g><g style="fill:#fff;fill-opacity:1"><path d="M30.117 160.08c-1.904-.022-3.628.566-5.06 1.741a4 4 0 0 0-.947 1.137 3.25 3.25 0 0 0 .616 4.049c.256.24.533.457.805.674l.18.142c.14.114.282.228.396.358.06.07.109.147 0 .294a.7.7 0 0 1-.195.19c-.57.382-1.055.55-1.562.55h-.01c-2.302-.016-4.592-.01-6.894-.01l-2.236.005h-.097c-.316-.006-.621-.006-.878.255-.254.256-.249.571-.243.822v29.744c-.006.277-.012.582.25.837.25.257.56.25.805.245l.163-.006 11.257.006h6.894l11.289-.006.162.006h.098c.229 0 .496-.022.718-.245.255-.255.256-.565.252-.837l-.008-9.744c0-.354-.058-.686-.178-1.016-.278-.741-.593-1.307-1.002-1.78-.516-.6-1.104-.953-1.806-1.088a2.6 2.6 0 0 0-1.838.337c-.343.2-.648.478-.97.876l-.234.298c-.163.208-.32.414-.489.61-.376.434-.735.474-1.197.131a2.65 2.65 0 0 1-.712-.85 5.3 5.3 0 0 1-.713-2.443 5.2 5.2 0 0 1 .968-3.22q.23-.318.539-.533.635-.433 1.132.13c.184.206.358.429.527.653l.25.31c.268.337.544.593.845.79.934.598 1.935.608 2.9.031.799-.479 1.239-1.23 1.5-1.752a4.66 4.66 0 0 0 .502-2.138c-.024-2.155-.018-4.31-.018-6.459l.006-2.855c0-.282.005-.598-.256-.86-.261-.255-.57-.255-.877-.255l-.151.006q-4.61-.007-9.211 0h-.006c-.565 0-1.065-.218-1.578-.686-.114-.104-.152-.19-.152-.228 0-.045.044-.137.175-.256.195-.18.404-.343.614-.506.137-.108.284-.223.42-.338.626-.522 1.016-1.087 1.197-1.741.272-.99.091-1.948-.53-2.844-.466-.67-1.125-1.215-2.005-1.672a7.66 7.66 0 0 0-3.407-.859m-.308 2.501a5.4 5.4 0 0 1 3.062.9c.26.174.462.369.62.599.25.374.228.69-.077 1.005a4 4 0 0 1-.418.365l-.419.348a7 7 0 0 0-.655.571 2.69 2.69 0 0 0-.135 3.65c.953 1.088 2.095 1.648 3.396 1.654 2.066.011 4.14.006 6.207.006h1.975l-.005 2.014c0 1.985-.006 3.965.016 5.951 0 .48-.147.909-.507 1.448a1 1 0 0 1-.266.265c-.103.071-.168.066-.271-.004-.084-.06-.17-.17-.262-.278q-.147-.19-.293-.37a10 10 0 0 0-.703-.832c-1.093-1.114-2.786-1.296-4.118-.44a4.5 4.5 0 0 0-1.3 1.272c-1.654 2.475-1.872 5.11-.658 7.828a5.8 5.8 0 0 0 1.261 1.79c.736.714 1.704 1.089 2.65 1.034.903-.043 1.742-.478 2.355-1.218l.572-.697c.12-.153.24-.304.376-.445.109-.109.19-.148.234-.148.038 0 .103.028.195.12.496.501.73.985.724 1.53v8.094H16.498V171.68l8.124-.006h.13c.191.006.425.01.669-.055 1.03-.288 1.785-.696 2.384-1.29.571-.57.887-1.282.887-2.005 0-.736-.31-1.426-.892-2.003-.202-.202-.43-.382-.654-.561l-.402-.326a3 3 0 0 1-.391-.354c-.218-.262-.251-.485-.115-.784.126-.272.31-.5.582-.696a5.2 5.2 0 0 1 2.989-1.018z" style="fill:#fff;fill-opacity:1;stroke-width:1.39278" transform="translate(21.007 183.682)scale(.37506)"/></g><g style="fill:#fff;fill-opacity:1"><path d="M220.15 162.197q-.132 0-.272.006c-.805.07-1.415.685-1.447 1.473-.023.61-.023 1.24 0 1.936.022.704.506 1.275 1.224 1.449.175.037.337.037.48.037l.086.006v1.452q-.001 1.395.006 2.792c0 .93.088 1.746.268 2.497.685 2.878 2.278 5.146 4.75 6.746a10.72 10.72 0 0 0-4.267 5.163 11.1 11.1 0 0 0-.751 4.015q-.007 1.19-.006 2.388v1.92h-.186c-.968.023-1.598.665-1.61 1.639-.005.168 0 .342 0 .516.012.279.017.56-.005.845-.038.56.103 1.039.419 1.376.331.354.833.543 1.441.543h.006c5.349-.015 10.697-.016 16.04-.016l5.064.006q.13 0 .25-.006c.876-.043 1.502-.675 1.53-1.534a35 35 0 0 0 0-1.85 1.546 1.546 0 0 0-1.307-1.485 2.4 2.4 0 0 0-.483-.034h-.006v-4.134c0-.713-.048-1.338-.147-1.922-.533-3.17-2.17-5.668-4.87-7.43a10.7 10.7 0 0 0 3.232-3.178c1.17-1.773 1.769-3.803 1.785-6.028q.008-1.361 0-2.73v-1.552h.081q.116 0 .229-.006c.85-.076 1.458-.701 1.486-1.529a35 35 0 0 0 0-1.85 1.56 1.56 0 0 0-1.496-1.518c-.077-.004-.153-.004-.306-.004zm2.053 4.906h17.279a136 136 0 0 0-.007 1.567l.006 1.36q0 .816-.006 1.627c-.032 2.704-1.131 4.967-3.264 6.72a9.5 9.5 0 0 1-2.08 1.304 1.4 1.4 0 0 0-.237.132.92.92 0 0 0-.425.783c0 .31.157.592.434.778.077.055.165.097.257.136l.103.05c2.329 1.207 3.864 2.861 4.69 5.042a7.8 7.8 0 0 1 .518 2.737 439 439 0 0 1 .01 3.574v1.166H222.12v-4.457c0-2.012.604-3.802 1.796-5.331a9.75 9.75 0 0 1 3.438-2.743l.082-.032c.098-.048.2-.097.288-.163a.92.92 0 0 0 .408-.767.93.93 0 0 0-.413-.762 1.7 1.7 0 0 0-.272-.153l-.093-.042c-1.992-1.018-3.405-2.385-4.332-4.178a8.1 8.1 0 0 1-.897-3.63c-.01-1.11-.006-2.22-.006-3.329v-1.383z" style="fill:#fff;fill-opacity:1;stroke-width:1.39278" transform="translate(389.349 184.475)scale(.37506)"/><path d="M230.766 184.868a.92.92 0 0 0-.878.756q-.02.163-.026.326l-.006.142.006.146c.006.114.01.24.028.354a.88.88 0 0 0 .88.745h.033c.468 0 .843-.304.908-.756a3.5 3.5 0 0 0 0-.952.925.925 0 0 0-.947-.761m.947-2.018a.905.905 0 0 0-.908-.794h-.017a.93.93 0 0 0-.902.793l-.011.104v.456c-.006.098-.006.202.006.3a.89.89 0 0 0 .919.816h.01c.49 0 .864-.331.903-.794.034-.3.028-.593 0-.882m6.137 8.738-.158-.135q-.21-.19-.429-.37c-1.752-1.388-3.775-2.378-6.192-3.031-.277-.077-.515-.006-.69.043-.976.273-1.834.576-2.639.941-1.583.719-2.873 1.535-3.96 2.531a1.4 1.4 0 0 0-.263.277.93.93 0 0 0-.103.93.89.89 0 0 0 .719.523c.065.006 13.28.01 13.378-.006a.86.86 0 0 0 .653-.48.93.93 0 0 0-.017-.864 1.4 1.4 0 0 0-.3-.36m-10.853-22.164a6.2 6.2 0 0 0-3.835 1.278 1.18 1.18 0 0 0-.518 1.045c.028 1.257.307 2.41.828 3.439.93 1.822 2.41 3.203 4.391 4.096.549.251 1.125.523 1.616.91.24.19.38.352.418.599.066.444.42.728.903.728.485 0 .837-.288.903-.73.039-.25.185-.408.424-.599a6 6 0 0 1 1.459-.831 8.4 8.4 0 0 0 1.53-.822c1.735-1.181 2.866-2.622 3.448-4.418a7.7 7.7 0 0 0 .391-2.507.99.99 0 0 0-.38-.794.92.92 0 0 0-.822-.142c-.174.042-.292.14-.397.223-1.148.881-2.475 1.131-4.053.762-.69-.159-1.365-.468-2.198-1.013a7.66 7.66 0 0 0-4.108-1.224m.021 1.883a5.7 5.7 0 0 1 1.785.314c.507.163.985.404 1.475.73a8.1 8.1 0 0 0 2.829 1.202 6.83 6.83 0 0 0 3.738-.25c-.376 1.332-1.147 2.437-2.356 3.373a6.5 6.5 0 0 1-1.594.919 7.3 7.3 0 0 0-2.089 1.268c-.702-.6-1.518-1.006-2.22-1.334-2.295-1.054-3.64-2.757-3.993-5.063l-.028-.164c-.02-.128-.041-.263-.063-.267l-.007.006c0-.006.006-.006.006-.006h.001c.036-.028.14-.079.237-.13l.202-.098a4.44 4.44 0 0 1 2.077-.5" style="fill:#fff;fill-opacity:1;stroke-width:1.39278" transform="translate(389.349 184.475)scale(.37506)"/><path d="m237.239 172.942.049.01-.049.007zm-.289-.061.154.034-.088.065-.049.006q-.033-.061-.016-.104" style="fill:#fff;fill-opacity:1;stroke-width:1.39278" transform="translate(389.349 184.475)scale(.37506)"/></g><path d="m-14.67-49.972-4.205 4.21v216.643l4.205 4.206h216.643l4.207-4.206V-45.761l-4.207-4.211z" style="fill:#7adfa9;fill-opacity:1;stroke-width:1.09658" transform="translate(218.875 99.027)scale(.37506)"/><path fill="#4d8393" d="M224.585 94.83c0 40.636-41.589 73.574-92.892 73.574-51.3 0-92.893-32.938-92.893-73.573 0-40.63 41.594-73.573 92.893-73.573 51.305 0 92.892 32.944 92.892 73.573" style="stroke-width:1.39278" transform="translate(204.609 90.57)scale(.37506)"/><path fill="#100f0d" d="M131.693 23.124c-50.189 0-91.027 32.171-91.027 71.712 0 39.537 40.837 71.708 91.027 71.708s91.025-32.17 91.025-71.708c0-39.541-40.836-71.712-91.025-71.712m0 147.147c-52.246 0-94.754-33.84-94.754-75.433 0-41.6 42.508-75.44 94.754-75.44s94.751 33.84 94.751 75.438c0 41.594-42.506 75.433-94.751 75.433" style="stroke-width:1.39278" transform="translate(204.609 90.57)scale(.37506)"/><path fill="#f03a1f" d="M224.585 82.22c0 40.636-41.589 73.573-92.892 73.573-51.3 0-92.893-32.937-92.893-73.573 0-40.63 41.594-73.572 92.893-73.572 51.305 0 92.892 32.942 92.892 73.572" style="stroke-width:1.39278" transform="translate(204.609 90.57)scale(.37506)"/><path fill="#100f0d" d="M131.693 10.514c-50.189 0-91.027 32.17-91.027 71.706 0 39.541 40.837 71.706 91.027 71.706 50.195 0 91.025-32.165 91.025-71.706 0-39.537-40.83-71.707-91.025-71.707m0 147.145c-52.246 0-94.754-33.84-94.754-75.44 0-41.593 42.508-75.432 94.754-75.432s94.758 33.839 94.758 75.433c0 41.598-42.513 75.439-94.758 75.439" style="stroke-width:1.39278" transform="translate(204.609 90.57)scale(.37506)"/><path fill="#100f0d" d="M131.203 17.83c-45.21 0-81.995 28.96-81.995 64.553 0 35.598 36.784 64.553 81.995 64.553 45.21 0 81.994-28.956 81.994-64.553 0-35.592-36.783-64.552-81.993-64.552m0 132.836c-47.267 0-85.722-30.63-85.722-68.284 0-37.648 38.455-68.284 85.722-68.284 47.268 0 85.722 30.636 85.722 68.284 0 37.654-38.455 68.284-85.722 68.284" style="stroke-width:1.39278" transform="translate(204.609 90.57)scale(.37506)"/><path fill="#100f0d" d="M150.043 17.71a1.41 1.41 0 0 0-1.648.665L123.57 63.433a1.41 1.41 0 0 0 .272 1.7l18.074 16.885a1.38 1.38 0 0 0 1.435.294c.501-.185.85-.636.91-1.164l6.751-61.951a1.39 1.39 0 0 0-.97-1.486" style="stroke-width:1.39278" transform="translate(204.609 90.57)scale(.37506)"/><path fill="#e6a511" d="m108.984-9.247 33.655 90.531-11.528 4.727-29.249-93.609Z" style="stroke-width:1.39278" transform="translate(204.609 90.57)scale(.37506)"/><path fill="#e6a511" d="m131.11 86.011-39.226-39.22s8.934.19 11.909-14.233c2.97-14.417-1.93-40.157-1.93-40.157z" style="stroke-width:1.39278" transform="translate(204.609 90.57)scale(.37506)"/><path fill="#100f0d" d="m131.992 84.141-11.3-36.17-17.04-54.546 4.45-1.028L140.855 80.5ZM105.16 32.842c1.415-6.855 1.11-16.073.376-24.005l22.545 72.17L94.723 47.65c3.238-1.104 8.31-4.488 10.436-14.808m38.79 47.954L110.294-9.735a1.393 1.393 0 0 0-1.627-.872l-7.12 1.643q-.007.007-.012.006c-.006.005-.01 0-.01.005a1.4 1.4 0 0 0-.49.229c-.023.016-.038.043-.06.065a1.4 1.4 0 0 0-.305.337c-.006.011-.016.017-.021.028-.028.049-.028.103-.05.152a1.4 1.4 0 0 0-.109.331c-.01.083 0 .158 0 .24 0 .077-.015.153 0 .234.05.256 4.815 25.635 1.932 39.618-2.671 12.948-10.163 13.111-10.506 13.111h-.005c-.6.017-1.088.32-1.317.85a1.4 1.4 0 0 0 .3 1.539l39.226 39.22c.07.066.154.105.234.154.055.038.098.092.163.125.012.005.023 0 .032.005a1.28 1.28 0 0 0 1.028.032c.023-.005.045 0 .062-.01l11.528-4.727a1.403 1.403 0 0 0 .782-1.786m-7.001-44.912-.255-15.352a96 96 0 0 0-2.797-.043l.255 15.335q1.403.01 2.797.06M72.346 68.44l-15.51-2.847a56 56 0 0 0-.969 2.666l15.315 2.813c.348-.887.747-1.763 1.164-2.632m18.814 50.798L79.12 129.77a70 70 0 0 0 2.438 1.59l12.193-10.67a71 71 0 0 1-2.59-1.452m63.975-80.542 5.772-14.293a86 86 0 0 0-2.709-.766l-5.788 14.346q1.378.327 2.725.713m29.689 18.16 13.688-7.426a57 57 0 0 0-1.762-2.231l-13.841 7.514a48 48 0 0 1 1.915 2.143" style="stroke-width:1.39278" transform="translate(204.609 90.57)scale(.37506)"/><path fill="#100f0d" d="M97.841 44.08a75 75 0 0 1 2.66-1.271L89.279 31.275a78 78 0 0 0-2.52 1.387c.029.032.039.07.07.103zm-14.358 9.8c.376-.337.768-.663 1.155-.996l-14.38-7.552q-1.023 1.037-1.997 2.106l14.173 7.449c.349-.337.691-.676 1.05-1.007m-7.04 52.62-14.342 6.328q.799 1.185 1.654 2.329l14.526-6.408a43 43 0 0 1-1.838-2.248m95.193-60.733 10.647-11.42a82 82 0 0 0-2.4-1.533l-10.738 11.523q1.265.687 2.49 1.43M68.757 87.851l-15.244 1.725c.097.936.223 1.855.376 2.774l15.265-1.73a38 38 0 0 1-.397-2.769m123.251-18.454c.304.886.566 1.79.794 2.698l15.14-2.655a57 57 0 0 0-.696-2.716zm-81.842 57.43-7.526 13.862c.92.262 1.839.517 2.776.757l7.6-13.998a78 78 0 0 1-2.85-.621m58.589-15.049 18.563-13.726-22.813 9.314-12.36-9.385 8.487 11.474-18.411 14.38 22.915-9.75 12.258 9.816zm-126.989-5.832a58 58 0 0 0 2.666 9.254v-3.585a67 67 0 0 1-2.666-5.669m4.772 9.325v4.864a64 64 0 0 0 2.796 5.195v-5.875a72 72 0 0 1-2.796-4.184m4.908 6.992v6.376a68 68 0 0 0 2.795 3.808v-6.85a77 77 0 0 1-2.795-3.334m4.901 5.63v7.132a78 78 0 0 0 2.797 3.053v-7.399a91 91 0 0 1-2.797-2.785m4.907 4.716v7.585q1.362 1.305 2.797 2.563v-7.78a85 85 0 0 1-2.797-2.368m4.902 4.015v7.895a79 79 0 0 0 2.797 2.192v-8.024a106 106 0 0 1-2.797-2.061m4.907 3.514v8.117a92 92 0 0 0 2.797 1.908v-8.252a91 91 0 0 1-2.797-1.773m4.908 3.04v8.291q1.37.843 2.797 1.644v-8.351c-.953-.511-1.877-1.05-2.797-1.584m4.913 2.666v8.454c.919.49 1.855.953 2.796 1.415v-8.497q-1.419-.669-2.796-1.372m4.914 2.34v8.536c.93.425 1.855.85 2.795 1.25v-8.607a105 105 0 0 1-2.795-1.18m4.917 2.047v8.602q1.386.547 2.797 1.072v-8.669c-.936-.331-1.877-.651-2.797-1.005m4.913 1.735v8.688c.925.32 1.86.616 2.802.904v-8.71a120 120 0 0 1-2.802-.882m4.918 1.48v8.764c.925.268 1.86.507 2.796.752v-8.76c-.941-.234-1.866-.495-2.796-.757m4.919 1.247v8.797q1.386.331 2.795.63v-8.802c-.94-.19-1.87-.413-2.795-.627m4.912 1.02v8.823c.93.174 1.861.354 2.797.513V156.2c-.936-.148-1.866-.32-2.797-.49m5.751.91-.919 1.92v6.8c.93.136 1.86.278 2.797.387v-8.868q-.947-.109-1.878-.24m3.988.457v8.862c.925.094 1.855.191 2.796.262v-8.879a149 149 0 0 1-2.796-.245m4.902.376v8.872c.93.056 1.861.11 2.797.137v-8.885a116 116 0 0 1-2.797-.125m6.676.207c-.593 0-1.181-.028-1.769-.039v8.886c.588.01 1.176.038 1.769.038.343 0 .685-.023 1.028-.023v-8.884c-.343 0-.685.022-1.028.022m3.134-.067v8.886q1.406-.04 2.795-.103v-8.879q-1.39.064-2.795.098m4.906-.229v8.88a117 117 0 0 0 2.797-.23v-8.867a98 98 0 0 1-2.797.217m4.909-.43v8.868a98 98 0 0 0 2.795-.358v-8.847q-1.394.185-2.795.337m4.9-.637v8.853a111 111 0 0 0 2.798-.496v-8.825c-.925.169-1.856.32-2.797.468m4.908-.853v8.83c.94-.195 1.866-.414 2.795-.631v-8.798q-1.394.32-2.795.599m4.901-1.073v8.77a92 92 0 0 0 2.797-.745v-8.759c-.925.25-1.855.502-2.797.734m4.908-1.306v8.712c.935-.283 1.877-.562 2.796-.87v-8.722c-.93.299-1.855.604-2.796.881m4.906-1.572v8.661a102 102 0 0 0 2.798-1.033v-8.635a99 99 0 0 1-2.797 1.007m4.901-1.833v8.607a117 117 0 0 0 2.797-1.22v-8.53c-.92.396-1.86.767-2.797 1.141m4.909-2.104v8.53a103 103 0 0 0 2.796-1.414v-8.449a120 120 0 0 1-2.796 1.333m4.9-2.411v8.39a117 117 0 0 0 2.798-1.6V143.6c-.92.523-1.85 1.045-2.797 1.546m4.908-2.763v8.245q1.42-.912 2.797-1.865v-8.133q-1.382.897-2.797 1.752m4.901-3.183v8.074a86 86 0 0 0 2.797-2.138v-7.943a87 87 0 0 1-2.797 2.006m4.908-3.606v7.802a77 77 0 0 0 2.797-2.508v-7.628a83 83 0 0 1-2.797 2.334m4.903-4.233v7.466q1.448-1.464 2.8-2.982v-7.198a78 78 0 0 1-2.801 2.714m7.703-8.177a78 78 0 0 1-2.795 3.243v6.931a70 70 0 0 0 2.796-3.667zm2.112-2.703v6.054a67 67 0 0 0 2.796-4.918v-5.19a74 74 0 0 1-2.796 4.052m4.902-7.555v4.15a59 59 0 0 0 2.797-8.449v-1.246a67 67 0 0 1-2.797 5.543m-103.006 45.62.92-1.92c-.311-.039-.615-.088-.92-.125zM36.924 96.016h2.752V81.644h-2.752zm186.698 0h2.752V81.644h-2.752z" style="stroke-width:1.39278" transform="translate(204.609 90.57)scale(.37506)"/><path d="M803.002 13.294h4.654v-23.676h-4.654z" style="fill:#7adfa9;fill-opacity:1;fill-rule:nonzero;stroke:none;stroke-width:.352778" transform="translate(-254.543 242.906)scale(.93434)"/><path d="m0 0-20.245-20.245h-22.659v-13.192h27.18L13.192-4.526v26.971H0Z" style="fill:#7adfa9;fill-opacity:1;fill-rule:nonzero;stroke:none" transform="matrix(.32961 0 0 -.32961 495.731 265.998)"/><path d="M285.563-37.558h-4.654v23.674h4.654zm0-81.532h-4.654v23.676h4.654zm0 27.178h-4.654v23.674h4.654zm0-54.354h-4.654v23.674h4.654zm0 81.53h-4.654v23.676h4.654zM417.423 36.51h24.78v-4.654h-24.78zm-56.897 0h24.783v-4.654h-24.783zm28.448 0h24.783v-4.654h-24.783zm85.344 0h24.78v-4.654h-24.78zm-28.448 0h24.782v-4.654h-24.783zm56.894 0h24.783v-4.654h-24.783zm28.448 0h24.781v-4.654h-24.78zm-199.132 0h24.78v-4.654h-24.78Zm-28.449 0h24.783v-4.654H303.63Zm341.334 0h24.781v-4.654h-24.78zm-56.896 0h24.783v-4.654h-24.783Zm28.448 0H641.3v-4.654h-24.783Zm85.343 0h24.781v-4.654h-24.78zm-28.448 0h24.783v-4.654h-24.783Zm56.895 0h24.782v-4.654h-24.782zm28.448 0h24.781v-4.654h-24.78zm-199.133 0h24.781v-4.654h-24.78zM417.423-245.98h24.78v-4.653h-24.78zm-56.897 0h24.783v-4.653h-24.783zm28.448 0h24.783v-4.653h-24.783zm85.344 0h24.78v-4.653h-24.78zm-28.448 0h24.782v-4.653h-24.783zm56.894 0h24.783v-4.653h-24.783zm28.448 0h24.781v-4.653h-24.78zm-199.132 0h24.78v-4.653h-24.78Zm-28.449 0h24.783v-4.653H303.63Zm341.334 0h24.781v-4.653h-24.78zm-56.896 0h24.783v-4.653h-24.783zm28.448 0H641.3v-4.653h-24.783zm85.343 0h24.781v-4.653h-24.78zm-28.448 0h24.783v-4.653h-24.783Zm56.895 0h24.782v-4.653h-24.782zm28.448 0h24.781v-4.653h-24.78zm-199.133 0h24.781v-4.653h-24.78z" style="fill:#7adfa9;fill-opacity:1;fill-rule:nonzero;stroke:none;stroke-width:.352778" transform="translate(-254.543 242.906)scale(.93434)"/><path d="m0 0-20.245 20.245V42.69h-13.192V15.719l28.916-28.911h25.567V0Z" style="fill:#7adfa9;fill-opacity:1;fill-rule:nonzero;stroke:none" transform="matrix(.32961 0 0 -.32961 18.942 272.67)"/><path d="M285.563-10.382h-4.654v23.676h4.654zm517.439-85.032h4.654v-23.676h-4.654zM285.563-227.798h-4.654v23.675h4.654z" style="fill:#7adfa9;fill-opacity:1;fill-rule:nonzero;stroke:none;stroke-width:.352778" transform="translate(-254.543 242.906)scale(.93434)"/><path d="m0 0 20.245 20.245h21.046v13.187H15.724L-13.192 4.521V-21.26H0Z" style="fill:#7adfa9;fill-opacity:1;fill-rule:nonzero;stroke:none" transform="matrix(.32961 0 0 -.32961 12.269 19.787)"/><path d="M285.563-173.444h-4.654v23.676h4.654zM803.002-41.06h4.654v-23.676h-4.654zm0 26.94h4.654v-23.676h-4.654zm0-108.472h4.654v-23.674h-4.654zm0-27.674h4.654v-23.676h-4.654zm0-27.178h4.654v-23.674h-4.654zm0 109.206h4.654v-23.674h-4.654z" style="fill:#7adfa9;fill-opacity:1;fill-rule:nonzero;stroke:none;stroke-width:.352778" transform="translate(-254.543 242.906)scale(.93434)"/><path d="m0 0 20.245-20.245v-21.26h13.192v25.781L4.521 13.187h-27.18V0Z" style="fill:#7adfa9;fill-opacity:1;fill-rule:nonzero;stroke:none" transform="matrix(.32961 0 0 -.32961 489.058 13.114)"/><path d="M803.002-204.123h4.654v-23.675h-4.654zm-517.439 3.503h-4.654v23.674h4.654z" style="fill:#7adfa9;fill-opacity:1;fill-rule:nonzero;stroke:none;stroke-width:.352778" transform="translate(-254.543 242.906)scale(.93434)"/></svg>