<svg xmlns="http://www.w3.org/2000/svg" xml:space="preserve" width="615.134" height="578.011" viewBox="0 0 615.134 578.011"><desc>Produce by Acme CAD Converter</desc><path d="M207.522 0c-4.544-.009-9.061.248-13.314 1.315-5.358 1.343-8.051 6.663-9.317 11.476-2.704 10.289-.51 23.748-.51 34.393v215.289c0 11.526.762 23.343-.023 34.84-1.612 23.611-4.539 47.48-7.181 71.02-1.67 14.863-2.798 29.793-4.467 44.665-1.285 11.444-3.7 22.105 2.797 32.606 8.92 14.418 26.865 12.953 41.48 12.953 4.97 0 11.732-1.251 16.08 1.496 10.507 6.633 6.698 24.375 6.7 35.13 0 5.687 1.218 12.306 6.253 15.741 7.37 5.02 18.795 3.02 27.246 3.02h46.453c7.456 0 16.02-.81 22.78.445 7.718 5.704 21.722 4.467 30.82 4.467 16.156 0 33.601 1.737 49.578-.059 5.385-.603 10.817-1.317 16.08-2.826 2.803-.8 3.92-1.948 6.7-2.024 6.68-.173 15.046-.004 21.886-.004h46.453c8.64 0 20.139 1.955 26.776-4.923 7.38-7.643 4.49-23.31 4.49-33.043 0-5.914-.088-11.632 5.361-15.334 5.329-3.614 13.444-2.086 19.653-2.086 17.464 0 34.237-.792 42.187-19.207 3.48-8.062.785-17.648-.144-25.907-2.006-17.846-3.359-35.76-5.36-53.597-2.309-20.576-4.877-41.45-6.289-62.086-.835-12.234-.021-24.81-.021-37.074V23.51c0-8.482-.345-17.213-8.934-21.674C587.251-.493 580.99.283 576.102.283h-23.674c-5.297 0-10.36.18-14.29 4.03-1.835 1.796-3.597 4.052-4.256 6.691-1.457 5.825.584 12.329 5.593 15.738 3.602 2.452 7.612 3.191 10.662 6.596 2.578 2.875 3.186 6.556 3.186 10.272v210.824c0 4.692 1.38 9.383-.514 13.846-4.68 11.04-21.207 8.873-20.916 23.673.119 6.008 3.885 11.777 9.37 14.235 5.257 2.355 11.198 2.378 14.285 8.105 3.399 6.306 1.181 13.942-.346 20.54-2.774 11.944-6.475 23.067-11.21 34.392-2.293 5.487-4.896 12.577-9.04 16.949-8.05 8.491-12.2-8.85-20.043-5.959-3.965 1.462-7.77 7.052-10.719 10.002-8.088 8.088-17.122 15.83-24.5 24.566-2.25 2.664-1.406 6.996-1.406 10.274 0 7.472 1.167 16.022-1.01 23.226-2.027 6.705-9.498 10.027-15.963 10.264-2.257.085-7.28-.98-9.111.47-1.649 1.305-.682 6.544-.719 8.473-.023 1.233.015 2.697-1.394 3.215-2.183.804-2.21-1.839-2.239-3.215-.043-2.117 1.157-7.71-2.18-8.013-8.4-.764-17.84-.028-26.343-.028h-72.807c-2.3 0-6.251-.757-8.343.27-2.577 1.268.992 11.953-3.211 10.975-3.894-.907.558-9.56-2.114-11.676-1.884-1.492-7.212-.386-9.558-.471-6.032-.219-11.587-2.71-14.713-8.03-5.778-9.83 1.66-23.351-2.082-33.5-.843-2.284-3.413-4.129-5.09-5.806l-20.994-20.994c-3.024-3.024-6.427-7.89-10.274-9.812-8.106-4.054-13.617 15.707-21.097 4.898-10.046-14.517-15.263-33.078-19.194-50.023-1.508-6.5-3.767-14.22-.793-20.547 2.959-6.294 8.74-6.06 14.286-8.545 5.386-2.413 9.987-8.6 9.792-14.682-.49-15.373-20.312-13.06-22.175-27.693-.523-4.109.77-9.513.77-13.846V55.223c0-5.786-1.078-12.796.822-18.313 2.135-6.205 7.808-6.921 12.578-10.168 4.67-3.179 7.14-8.828 6.134-14.398-.465-2.582-2.35-5.59-4.105-7.275-1.507-1.446-3.453-3.058-5.604-3.688-6.54-1.915-13.786-1.098-20.546-1.098-4.368 0-8.94-.274-13.485-.283m29.945 7.43c6.648.118 9.812 11.414 2.747 14.023-8.953 3.306-14.916-10.379-4.913-13.68a6.5 6.5 0 0 1 2.166-.343m310.497.033c6.735-.177 9.755 11.26 2.232 13.918-9.733 3.44-13.635-10.597-4.02-13.61a6.5 6.5 0 0 1 1.788-.308M207.975 217.131c4.996-.055 7.882 7.465 1.866 10.49-5.717 2.874-10.332-6.753-4.458-9.802.901-.468 1.775-.679 2.592-.688m368.813.092c4.797.088 7.752 7.501 1.994 10.398-5.994 3.017-10.577-6.727-4.467-9.802.854-.43 1.688-.61 2.473-.596m-28.668 67.074c7.181.016 9.131 12.09.736 14.72-8.506 2.667-11.258-11.63-3.127-14.314a7.6 7.6 0 0 1 2.39-.406m-310.936.15c4.57-.19 8.371 5.422 6.78 9.739-.85 2.302-3.401 4.176-5.538 4.816-1.782.534-3.22-.025-4.888-1.045-1.353-.826-2.11-1.951-2.809-3.326-2.153-4.23.503-8.516 5.018-9.93a5.6 5.6 0 0 1 1.437-.254m292.092 112.409c7.064-.078 10.348 11.085 2.608 14.091-8.93 3.468-13.91-10.662-4.915-13.685a7.5 7.5 0 0 1 2.307-.406m-273.334.035c7.08.082 9.836 11.694 1.692 14.14-9.092 2.732-12.7-11.001-4.02-13.773a7.4 7.4 0 0 1 2.328-.367m23.902 24.848c7.576.016 10.345 11.21 1.463 14.142-7.521 2.484-12.154-10.92-4.459-13.605 1.063-.371 2.066-.54 2.996-.537m225.088.035c7.517.092 10.215 11.231 1.49 14.107-7.653 2.524-12.286-10.957-4.464-13.605 1.056-.358 2.051-.514 2.974-.502m-311.67 3.08c6.085-.096 6.842 9.868.053 11.133-6.212 1.156-7.36-9.629-1.34-10.973a6.4 6.4 0 0 1 1.287-.16m398.918.07c5.798.074 6.6 9.917.448 11.063-6.75 1.26-8.518-9.928-1.34-11q.464-.068.892-.063m-338.19 55.317c6.039-.115 7.315 9.492.517 10.966-6.109 1.327-8.184-9.379-1.788-10.808.444-.1.87-.15 1.272-.158m277.499.064c6.117.07 6.2 10.48-.5 10.975-6.644.491-7.1-9.917-.447-10.909q.495-.073.947-.066" style="fill:#666;fill-opacity:1;stroke:none;stroke-width:.44666"/><path d="M84.482 569.158a54 54 0 0 0 4.244-2.662c12.33-8.57 22.206-19.18 28.26-33.167 2.68-6.195 3.684-12.522 5.5-18.95.844-2.993 2.386-5.787 4.593-7.918 2.675-2.583 6.56-4.374 9.917-6.106l20.067-10.356 45.58-23.523c7.45-3.845 15.136-8.036 22.649-11.683 4.275-2.076 9.465-2.564 13.91-.98 6.24 2.225 11.383 8.39 16.089 12.719 2.731 2.514 5.776 6.495 9.557 7.217 2.147.411 4.041-.21 5.798-1.414 3.076-2.108 4.402-7.001 5.924-10.326 3.3-7.21 7.255-14.423 11.156-21.291 2.423-4.267 5.094-8.391 7.688-12.537 9.753-15.576 21.696-30.439 34.445-43.692 6.078-6.32 12.463-12.37 18.975-18.097 14.75-12.975 31.298-24.016 47.39-35.492 32.629-23.272 65.701-46.344 98.372-69.645 25.358-18.085 50.92-35.964 76.288-54.057 9.263-6.606 18.692-13.106 27.926-19.745 2.691-1.935 5.444-3.665 7.775-6.038 8.913-9.075 11.141-22.717 5.337-33.973-3.204-6.215-8.47-11.302-15.023-14.028-6.68-2.78-15.099-3.219-21.795-.337-1.195.515-1.748.87-2.88 1.454-1.033.533-1.6.772-2.566 1.357-2.023 1.227-4.202 3.108-5.8 4.94-4.004 4.585-6.533 10.228-7.376 16.348-.688 4.987.208 9.632-2.222 14.293-.583 1.118-1.28 2.058-2.074 3.015-2.485 2.994-5.873 4.913-9.02 7.143-5.445 3.858-11.041 7.824-16.485 11.668-17.483 12.347-34.895 24.756-52.369 37.096-47.13 33.283-94.341 66.305-141.167 99.974-17.339 12.467-34.984 24.724-52.479 36.883-8.069 5.608-18.161 10.882-27.334 14.562-3.696 1.483-7.668 3.114-11.5 4.446-9.887 3.436-19.96 6.259-30.296 8.12-7.782 1.4-15.932 2.56-23.954 2.822-4.131.135-8.764-.183-12.868 1.093-2.196.683-3.431 1.602-5.515 2.678l-22.647 11.687-70.806 36.542-33.253 17.16-6.307 3.256c-2.024 1.044-2.973 1.294-4.94 3.09-5.379 4.91-9.14 12.985-12.983 19.155-5.065 8.13-11.489 16.054-15.048 25.005-3.446 8.671-4.205 18.82-1.872 27.724 1.165 4.459 2.991 9.243 5.693 13.035 4.662 6.552 10.315 11.927 17.68 15.561 7.916 3.91 17.039 4.93 25.66 4.818 11.366-.148 23.859-3.048 34.106-8.844m-16.308-24.795c-6.536 3.233-14.734 4.91-21.49 3.976-5.36-.741-10.399-4.098-12.923-8.864-1.014-1.914-1.751-4.174-1.967-6.245-1.087-10.442 7.979-20.273 13.373-28.628 2.609-4.04 4.818-8.264 8.825-11.038 5.736-3.973 14.55-8.93 21.523-8.94 9.007-.014 16.527 7.003 17.709 15.814.468 3.488.227 7.123-.311 10.688-1.991 13.228-9.925 23.402-20.516 30.763a33 33 0 0 1-4.223 2.474m74.348-67.444c-15.842 8.483-33.972-11.518-23.248-27.083 1.183-1.717 2.573-3.216 4.243-4.44 2.304-1.69 5.084-2.768 7.783-3.207.948-.154 1.799-.27 2.758-.284 1.713-.022 3.393.223 5.092.723 14.868 4.38 18.11 23.746 5.689 32.828a20 20 0 0 1-2.317 1.463m57.44-33.518c-.725.356-1.455.58-2.261.837-5.553 1.776-11.898-.039-15.771-4.463-2.714-3.099-3.96-7.144-3.475-11.275.557-4.745 3.018-8.953 6.988-11.53 10.15-6.589 23.471 2.452 22.994 13.845-.222 5.316-3.517 9.496-7.748 12.18a8 8 0 0 1-.727.406" style="fill:#000;fill-opacity:1;stroke:none;stroke-width:.322589"/><circle cx="195.593" cy="431.652" r="19.079" style="fill:#666;fill-opacity:1;stroke:none;stroke-width:1;stroke-dasharray:none;stroke-opacity:1"/></svg>